# xmcd
#
# Track frame offsets:
#	150
#	14462
#	32835
#	50885
#	65877
#	87590
#	106107
#	121900
#	137350
#	156535
#	175982
#	195882
#
# Disc length: 3405 seconds
#
# Revision: 0
# Processed by: cddbd v1.5.1PL0 Copyright (c) Steve Scherf et al.
# Submitted via: dBpowerAMP V4.0
#
DISCID=a60d4b0c
DTITLE=claroscuro - supereterodino
DYEAR=1900
DGENRE=Blues
TTITLE0=monoaural
TTITLE1=miel
TTITLE2=chiqle
TTITLE3=ambientador
TTITLE4=semillas color jam
TTITLE5=amperios
TTITLE6=ultramegaman
TTITLE7=tierra prometida
TTITLE8=umbilical
TTITLE9=el groove de la saliva
TTITLE10=dulce narcotico
TTITLE11=puñal
EXTD=aas
EXTT0=
EXTT1=
EXTT2=
EXTT3=
EXTT4=
EXTT5=
EXTT6=
EXTT7=
EXTT8=
EXTT9=
EXTT10=
EXTT11=
PLAYORDER=
